<svg xmlns="http://www.w3.org/2000/svg" width="19.544" height="24.818" viewBox="0 0 19.544 24.818"><defs><style>.a{fill:#1d2a5e;}</style></defs><g transform="translate(-7.907)"><g transform="translate(7.907)"><g transform="translate(0)"><path class="a" d="M25.852,3.8a.6.6,0,0,0,.6-.6V1.31A1.311,1.311,0,0,0,25.141,0H12.469a.6.6,0,0,0-.424.175L7.082,5.138a.6.6,0,0,0-.175.424V23.508a1.312,1.312,0,0,0,1.31,1.31H25.141a1.311,1.311,0,0,0,1.309-1.31V14.362a.6.6,0,1,0-1.2,0v9.146a.112.112,0,0,1-.111.112H8.217a.112.112,0,0,1-.112-.112V6.161h3.653a1.311,1.311,0,0,0,1.31-1.31V1.2H25.141a.112.112,0,0,1,.111.112V3.2A.6.6,0,0,0,25.852,3.8ZM11.87,4.851a.112.112,0,0,1-.111.112H8.953L11.87,2.045Z" transform="translate(-6.907)"/></g></g></g></svg>